<?xml version="1.0" standalone="no"?>
<!DOCTYPE svg PUBLIC "-//W3C//DTD SVG 20010904//EN"
 "http://www.w3.org/TR/2001/REC-SVG-20010904/DTD/svg10.dtd">
<svg version="1.0" xmlns="http://www.w3.org/2000/svg"
 width="1014.000000pt" height="1350.000000pt" viewBox="0 0 1014.000000 1350.000000"
 preserveAspectRatio="xMidYMid meet">

<g transform="translate(0.000000,1350.000000) scale(0.100000,-0.100000)"
fill="#000000" stroke="none">
<path d="M0 6750 l0 -6750 5070 0 5071 0 -1 6750 -1 6750 -5070 0 -5069 0 0
-6750z m733 6713 c-7 -2 -19 -2 -25 0 -7 3 -2 5 12 5 14 0 19 -2 13 -5z m244
0 c-20 -2 -52 -2 -70 0 -17 2 0 4 38 4 39 0 53 -2 32 -4z m561 0 c-10 -2 -26
-2 -35 0 -10 3 -2 5 17 5 19 0 27 -2 18 -5z m3175 0 c-7 -2 -19 -2 -25 0 -7 3
-2 5 12 5 14 0 19 -2 13 -5z m584 1 c-3 -3 -12 -4 -19 -1 -8 3 -5 6 6 6 11 1
17 -2 13 -5z m266 -1 c-7 -2 -19 -2 -25 0 -7 3 -2 5 12 5 14 0 19 -2 13 -5z
m290 0 c-18 -2 -48 -2 -65 0 -18 2 -4 4 32 4 36 0 50 -2 33 -4z m490 0 c-62
-2 -165 -2 -230 0 -65 1 -14 3 112 3 127 0 180 -2 118 -3z m340 0 c-40 -2
-107 -2 -150 0 -43 1 -10 3 72 3 83 0 118 -2 78 -3z m279 0 c-40 -2 -103 -2
-140 0 -37 2 -4 3 73 3 77 0 107 -2 67 -3z m241 0 c-7 -2 -21 -2 -30 0 -10 3
-4 5 12 5 17 0 24 -2 18 -5z m60 0 c-7 -2 -21 -2 -30 0 -10 3 -4 5 12 5 17 0
24 -2 18 -5z m-6593 -60 c0 -7 -11 -13 -25 -13 -30 0 -33 -20 -5 -27 26 -7 26
-19 0 -26 -13 -3 -18 -10 -14 -21 3 -9 1 -16 -5 -16 -7 0 -9 -9 -5 -25 3 -14
2 -33 -2 -42 -8 -16 -24 180 -17 198 4 11 73 -16 73 -28z m47 11 c-3 -3 -12
-4 -19 -1 -8 3 -5 6 6 6 11 1 17 -2 13 -5z m43 -29 c-7 -9 -15 -13 -17 -11 -7
7 7 26 19 26 6 0 6 -6 -2 -15z m-140 -189 c0 -8 3 -23 7 -33 6 -17 6 -17 -10
-1 -19 18 -23 48 -7 48 6 0 10 -6 10 -14z m3 -123 c-7 -3 -13 -12 -14 -21 0
-11 -2 -13 -6 -4 -6 15 17 46 26 36 3 -4 0 -9 -6 -11z m7 -233 c0 -5 -5 -10
-11 -10 -5 0 -7 5 -4 10 3 6 8 10 11 10 2 0 4 -4 4 -10z m-5 -30 c3 -5 -1 -10
-9 -10 -9 0 -16 5 -16 10 0 6 4 10 9 10 6 0 13 -4 16 -10z m1 -46 c-3 -9 -6
-20 -6 -25 0 -5 -4 -9 -10 -9 -5 0 -10 11 -10 25 0 16 6 25 16 25 11 0 14 -5
10 -16z m10 -129 c-8 -8 -18 -15 -22 -15 -3 0 -1 7 6 15 7 8 17 15 22 15 5 0
3 -7 -6 -15z m-6 -129 c0 -2 -7 -9 -15 -16 -12 -10 -15 -10 -15 4 0 9 7 16 15
16 8 0 15 -2 15 -4z m-15 -56 c3 -5 1 -10 -4 -10 -6 0 -11 5 -11 10 0 6 2 10
4 10 3 0 8 -4 11 -10z m39 -69 c3 -5 -3 -11 -14 -14 -20 -5 -26 3 -13 16 9 10
21 9 27 -2z m6666 -4846 c5 3 21 3 35 -1 l25 -6 0 -252 c0 -138 3 -261 6 -273
4 -13 14 -23 24 -23 16 0 117 96 176 168 33 40 87 74 111 70 10 -1 24 1 30 5
7 4 22 3 34 -3 11 -6 27 -9 35 -6 8 3 23 2 35 -2 18 -7 4 -24 -125 -146 -94
-90 -146 -146 -146 -159 0 -13 54 -73 146 -164 80 -79 144 -146 142 -147 -9
-8 -137 13 -163 26 -16 9 -76 59 -132 112 -57 53 -109 96 -117 96 -8 0 -24
-13 -35 -29 -17 -24 -21 -44 -21 -114 l0 -85 -52 -4 c-29 -3 -56 -2 -60 2 -10
8 -15 922 -5 938 6 9 13 9 28 2 11 -6 24 -8 29 -5z m-2388 -306 c84 -22 186
-119 208 -198 20 -74 22 -125 7 -145 -19 -25 -101 -35 -309 -35 l-158 -1 0
-29 c0 -38 43 -89 95 -112 69 -32 186 -19 235 26 26 23 48 16 83 -27 36 -45
32 -52 -50 -94 -54 -27 -66 -29 -168 -29 -95 0 -117 4 -158 24 -60 30 -131
110 -159 181 -29 74 -31 198 -4 255 47 98 123 161 228 189 52 15 76 14 150 -5z
m663 7 c66 -17 151 -55 166 -72 10 -12 4 -22 -31 -52 -62 -53 -63 -54 -102
-27 -43 29 -119 50 -153 41 -39 -10 -65 -42 -65 -80 0 -30 4 -35 43 -49 23 -9
78 -25 123 -37 145 -38 180 -74 178 -180 -2 -81 -32 -134 -97 -170 -37 -21
-55 -24 -147 -25 -116 0 -202 21 -247 59 -24 21 -24 23 -10 57 8 19 26 43 41
52 26 18 27 17 57 -13 17 -16 35 -30 41 -30 5 0 26 -7 45 -17 30 -14 42 -14
86 -4 65 15 97 44 97 87 0 41 -11 47 -130 74 -143 32 -181 54 -219 128 -44 87
-16 166 82 228 66 43 155 54 242 30z m620 -1 c67 -9 112 -34 167 -93 57 -61
89 -128 95 -202 5 -49 3 -58 -13 -65 -11 -5 -121 -10 -246 -13 l-228 -4 0 -28
c0 -35 36 -88 80 -118 31 -21 43 -23 115 -20 80 4 141 25 158 54 12 20 22 17
62 -17 54 -48 48 -64 -42 -107 -73 -33 -84 -36 -178 -36 -82 0 -108 3 -148 21
-105 49 -162 119 -196 242 -19 69 -20 78 -6 124 22 74 57 128 125 190 63 59
131 89 180 82 14 -2 47 -7 75 -10z m714 0 c144 -38 246 -171 239 -310 l-3 -60
-245 -5 c-276 -6 -273 -5 -226 -78 62 -99 201 -119 321 -47 l55 33 30 -28 c16
-15 30 -35 30 -44 0 -20 -37 -56 -74 -74 -14 -7 -37 -17 -51 -24 -35 -16 -170
-16 -239 1 -108 27 -199 133 -226 266 -21 101 0 186 65 263 51 61 168 119 245
121 14 0 49 -6 79 -14z m-4069 -10 c85 -11 169 -79 208 -168 38 -87 47 -142
33 -210 -34 -169 -127 -259 -281 -273 -55 -5 -78 -2 -143 21 -43 15 -80 25
-82 23 -2 -2 -8 -73 -12 -158 l-8 -155 -45 -3 c-25 -1 -51 1 -57 6 -10 6 -13
112 -13 451 -1 244 1 445 2 446 3 3 115 8 135 6 7 0 10 -8 7 -16 -8 -20 11
-19 42 2 30 19 120 42 149 38 11 -2 40 -7 65 -10z m707 -13 c58 -30 101 -74
124 -128 18 -40 20 -66 19 -262 0 -191 -2 -218 -17 -229 -21 -16 -85 -17 -100
-2 -8 8 -31 6 -82 -6 -136 -33 -257 -1 -316 83 -26 37 -30 53 -30 107 0 49 5
70 21 92 36 49 108 90 181 103 68 12 91 9 201 -25 20 -7 22 -4 22 26 0 43 -31
93 -72 120 -27 16 -46 19 -100 17 -57 -3 -72 -8 -96 -31 -15 -15 -32 -27 -36
-27 -4 0 -19 14 -33 30 -13 17 -31 30 -38 30 -15 0 -26 23 -17 36 13 19 68 51
122 73 72 28 185 25 247 -7z m656 7 c52 -17 67 -19 97 -9 19 6 55 10 80 8 l45
-3 -3 -250 c-6 -398 -22 -489 -99 -568 -66 -69 -103 -82 -228 -82 -101 1 -116
3 -180 32 -38 17 -71 36 -73 41 -4 14 69 111 84 111 6 1 17 -6 24 -14 19 -23
116 -55 166 -55 48 0 107 20 136 47 24 21 40 82 32 121 l-6 30 -54 -19 c-178
-63 -363 23 -418 193 -19 61 -20 188 -2 241 28 77 114 158 194 184 58 18 137
15 205 -8z"/>
<path d="M7304 6955 c-7 -28 10 -55 33 -55 11 0 13 8 8 33 -12 55 -30 65 -41
22z"/>
<path d="M7446 6941 c-4 -5 -2 -12 3 -15 5 -4 12 -2 15 3 4 5 2 12 -3 15 -5 4
-12 2 -15 -3z"/>
<path d="M7390 6880 c0 -13 7 -20 20 -20 22 0 18 25 -6 34 -9 3 -14 -1 -14
-14z"/>
<path d="M7516 6872 c-3 -6 1 -15 9 -19 8 -5 56 -49 105 -98 50 -48 90 -84 90
-79 -1 18 -197 206 -204 196z"/>
<path d="M4822 7110 c-23 -4 -55 -15 -70 -26 -30 -23 -75 -102 -65 -117 8 -13
312 -2 325 11 22 22 -52 117 -100 128 -15 3 -31 7 -37 8 -5 1 -29 -1 -53 -4z"/>
<path d="M6080 7098 c-56 -29 -110 -101 -94 -126 10 -15 34 -17 183 -20 194
-3 192 -4 149 77 -36 67 -59 83 -130 88 -52 4 -71 0 -108 -19z m-35 -128 c3
-5 -1 -10 -9 -10 -9 0 -16 5 -16 10 0 6 4 10 9 10 6 0 13 -4 16 -10z m60 0
c-3 -5 -12 -7 -20 -3 -21 7 -19 13 6 13 11 0 18 -4 14 -10z m210 0 c4 -6 -7
-10 -24 -10 -17 0 -31 5 -31 10 0 6 11 10 24 10 14 0 28 -4 31 -10z"/>
<path d="M6795 7112 c-61 -29 -115 -91 -115 -133 0 -12 320 -12 339 0 12 8 12
14 1 40 -37 90 -140 132 -225 93z"/>
<path d="M2682 7079 c-65 -32 -94 -89 -94 -183 1 -93 17 -126 79 -163 191
-112 406 131 265 299 -56 66 -168 87 -250 47z"/>
<path d="M3380 6849 c-79 -23 -104 -97 -49 -143 26 -22 40 -26 97 -26 86 0
126 22 143 79 14 48 8 68 -26 81 -41 16 -127 20 -165 9z"/>
<path d="M4045 7093 c-48 -25 -66 -45 -91 -98 -30 -64 -30 -99 1 -162 72 -144
274 -152 345 -12 22 43 27 130 9 176 -14 38 -57 82 -98 99 -44 18 -128 17
-166 -3z"/>
</g>
</svg>
