<svg width="1920" height="240" viewBox="0 0 1920 240" xmlns="http://www.w3.org/2000/svg"><rect width="1920" height="240" fill="#f3f4f6"/><path d="M1920,240C1601.3333333333333,255.5,285.6666666666667,252.66666666666666,0,240C-285.6666666666667,227.33333333333334,136.33333333333331,172.5,206,164C275.6666666666667,155.5,346.8333333333333,194.5,418,189C489.1666666666667,183.5,562,136.66666666666666,633,131C704,125.33333333333333,772.1666666666666,155.33333333333334,844,155C915.8333333333334,154.66666666666666,992.3333333333334,121.66666666666667,1064,129C1135.6666666666667,136.33333333333334,1203.3333333333333,195,1274,199C1344.6666666666667,203,1417.1666666666667,155.83333333333334,1488,153C1558.8333333333333,150.16666666666666,1628.3333333333333,183,1699,182C1769.6666666666667,181,1875.1666666666667,137.33333333333334,1912,147C1948.8333333333333,156.66666666666666,2238.6666666666665,224.5,1920,240C1601.3333333333333,255.5,285.6666666666667,252.66666666666666,0,240" fill="#fdba74"/></svg>